HIERARCHY
ROOT hip
{
	OFFSET 0.000000 0.000000 0.000000 
	CHANNELS 6 Xposition Yposition Zposition Xrotation Zrotation Yrotation
	JOINT abdomen
	{
		OFFSET 0.000000 3.402643 0.000000 
		CHANNELS 3 Xrotation Zrotation Yrotation
		JOINT chest
		{
			OFFSET 0.000000 8.438565 -0.680529 
			CHANNELS 3 Xrotation Zrotation Yrotation
			JOINT neck
			{
				OFFSET 0.000000 10.207942 -0.272212 
				CHANNELS 3 Xrotation Zrotation Yrotation
				JOINT head
				{
					OFFSET 0.000000 3.130431 0.000000 
					CHANNELS 3 Xrotation Zrotation Yrotation
					End Site
					{
						OFFSET 0.000000 3.130435 0.000000 
					}
				}
			}
			JOINT lCollar
			{
				OFFSET 3.470700 6.669187 -0.816635 
				CHANNELS 3 Yrotation Zrotation Xrotation
				JOINT lShldr
				{
					OFFSET 3.198488 0.000000 0.000000 
					CHANNELS 3 Zrotation Yrotation Xrotation
					JOINT lForeArm
					{
						OFFSET 10.139888 0.000000 0.000000 
						CHANNELS 3 Yrotation Zrotation Xrotation
						JOINT lHand
						{
							OFFSET 8.370511 0.000000 0.000000 
							CHANNELS 3 Zrotation Yrotation Xrotation
							End Site
							{
								OFFSET 4.083176 0.000000 0.000000 
							}
						}
					}
				}
			}
			JOINT rCollar
			{
				OFFSET -3.470700 6.669187 -0.816635 
				CHANNELS 3 Yrotation Zrotation Xrotation
				JOINT rShldr
				{
					OFFSET -3.198488 0.000000 0.000000 
					CHANNELS 3 Zrotation Yrotation Xrotation
					JOINT rForeArm
					{
						OFFSET -10.139888 0.000000 0.000000 
						CHANNELS 3 Yrotation Zrotation Xrotation
						JOINT rHand
						{
							OFFSET -8.370511 0.000000 0.000000 
							CHANNELS 3 Zrotation Yrotation Xrotation
							End Site
							{
								OFFSET -4.083176 0.000000 0.000000 
							}
						}
					}
				}
			}
		}
	}
	JOINT lThigh
	{
		OFFSET 5.308129 -1.633274 1.361059 
		CHANNELS 3 Xrotation Zrotation Yrotation
		JOINT lShin
		{
			OFFSET -2.041588 -20.007561 0.000000 
			CHANNELS 3 Xrotation Zrotation Yrotation
			JOINT lFoot
			{
				OFFSET 0.000000 -19.190928 -1.224953 
				CHANNELS 3 Xrotation Yrotation Zrotation
				End Site
				{
					OFFSET 0.000000 -2.449906 4.627600 
				}
			}
		}
	}
	JOINT rThigh
	{
		OFFSET -5.308129 -1.633274 1.361059 
		CHANNELS 3 Xrotation Zrotation Yrotation
		JOINT rShin
		{
			OFFSET 2.041588 -20.007561 0.000000 
			CHANNELS 3 Xrotation Zrotation Yrotation
			JOINT rFoot
			{
				OFFSET 0.000000 -19.190928 -1.224953 
				CHANNELS 3 Xrotation Yrotation Zrotation
				End Site
				{
					OFFSET 0.000000 -2.449906 4.627600 
				}
			}
		}
	}
}
MOTION
Frames: 14
Frame Time: 0.033333
4.351306 45.893112 0.286893 -40.917572 -7.903755 16.112926 0.000000 0.000000 0.000000 36.879246 10.307034 -1.884925 -12.623016 7.795311 -8.969498 39.574245 -0.224191 -3.496144 -3.521967 9.154817 6.304141 -100.183121 -14.738642 27.845531 -70.806938 5.018963 26.564642 14.423558 10.350328 -8.645989 3.089181 -14.089146 8.026228 103.697968 -3.470306 -5.227678 24.542376 -21.827482 54.550922 -36.061104 -24.941372 -5.302534 13.353788 18.647554 9.279141 54.889404 10.134018 -37.187088 -25.011229 -4.521353 16.575542 -58.298199 -4.970039 -20.831163 126.238495 -12.431252 3.539345 -25.770346 0.524091 -2.384418 
4.345880 45.824368 0.165538 -40.777397 -8.223351 15.879572 0.000000 0.000000 0.000000 37.071377 10.601226 -1.637716 -13.437593 7.484409 -9.072063 40.005939 -0.691898 -3.721020 -3.521967 9.154817 6.304141 -100.704483 -15.206328 28.169203 -69.977013 5.132265 26.718987 14.655474 10.044700 -8.671062 3.089181 -14.089146 8.026228 103.618362 -3.786355 -5.649221 24.623741 -21.926014 55.250748 -35.636074 -24.523827 -5.465619 12.942394 18.470078 8.664766 55.154671 10.203885 -36.529156 -25.181093 -4.529191 16.630281 -57.463001 -4.703868 -21.377235 125.799629 -12.421633 4.933969 -26.731449 0.642178 -2.721303 
4.284951 45.779690 -0.084403 -40.380646 -8.457693 15.671396 0.000000 0.000000 0.000000 36.956375 10.874286 -1.689291 -13.184744 7.576268 -8.827519 39.906857 -1.179392 -3.536014 -3.521967 9.154817 6.304141 -101.020355 -15.468163 28.537951 -68.854103 5.746172 27.009682 14.781019 10.059530 -8.670227 3.089181 -14.089146 8.026228 103.763046 -3.853345 -5.819486 24.581440 -21.894106 55.187515 -35.562370 -24.265371 -5.546897 12.066610 18.239305 8.056417 55.457138 10.194256 -35.742340 -25.236208 -4.549255 16.584259 -57.362484 -4.443548 -21.758938 124.668083 -12.436409 4.575135 -26.043598 0.525629 -2.395930 
4.287205 45.700005 -0.304781 -40.185024 -8.171351 15.037732 0.000000 0.000000 0.000000 37.102512 10.908953 -2.355772 -12.288868 7.168639 -7.883820 39.458054 -1.394560 -3.008822 -3.521967 9.154817 6.304141 -100.595680 -15.192128 27.996588 -68.665657 5.883435 26.633951 14.686531 10.142934 -8.669372 3.089181 -14.089146 8.026228 103.840645 -3.644346 -6.107280 24.543097 -21.855467 55.373581 -35.246479 -24.177496 -5.602511 11.783111 17.320116 7.456892 55.677917 9.964908 -34.436386 -25.542526 -4.588592 16.654612 -56.926132 -4.176531 -21.078403 123.513115 -12.284555 4.554315 -25.726839 0.442868 -2.049554 
4.297052 45.544327 -0.544206 -40.073318 -7.791242 14.018067 0.000000 0.000000 0.000000 37.123154 10.208758 -3.223917 -11.008962 6.546328 -6.762695 38.620483 -1.102546 -2.402838 -3.521967 9.154817 6.304141 -99.842728 -15.040434 26.795965 -68.961723 5.652254 26.118586 15.099038 10.198561 -8.677797 3.089181 -14.089146 8.026228 104.371193 -3.350349 -6.120287 24.926725 -22.267042 56.510086 -34.792130 -24.414015 -5.604382 11.561654 16.416031 7.258940 56.122604 9.505841 -33.351952 -25.823444 -4.639663 16.693855 -56.424374 -3.837810 -20.089581 122.234612 -12.089451 5.188408 -24.966297 0.407374 -1.956237 
4.259880 45.325806 -0.932064 -39.389259 -7.487389 13.426560 0.000000 0.000000 0.000000 36.457012 9.075676 -5.111771 -9.573586 5.455600 -5.257949 36.562767 -0.009762 -1.582033 -3.521967 9.154817 6.304141 -98.447487 -15.277412 26.099928 -70.208054 6.228636 25.265295 15.364271 11.444374 -8.590347 3.089181 -14.089146 8.026228 105.940773 -2.013770 -5.033951 25.036398 -24.511772 60.176991 -32.953125 -24.487921 -5.798057 10.092988 16.029768 7.251987 56.991100 8.944007 -33.187016 -25.739340 -4.626156 16.656368 -56.189781 -3.866885 -18.949539 121.309776 -11.892188 6.296048 -23.891073 0.388342 -1.998920 
4.191109 44.925545 -1.346124 -37.425846 -6.668019 13.490945 0.000000 0.000000 0.000000 34.517746 7.873872 -9.770231 -9.844730 4.036681 -3.201241 35.299366 0.449206 -0.429674 -3.521967 9.154817 6.304141 -94.640968 -14.657396 23.269001 -75.946922 4.089383 22.983046 14.345334 12.603536 -8.496324 3.089181 -14.089146 8.026228 105.355331 -5.272918 -2.823044 38.106403 -19.768593 66.689331 -27.773224 -25.331726 -6.304087 6.775146 15.279941 6.539088 58.542980 8.327564 -33.377777 -25.961815 -4.701801 16.780987 -55.961159 -4.627270 -17.285166 121.795822 -11.728330 6.591252 -23.628914 0.343640 -1.879076 
4.129252 44.411541 -1.905064 -34.182468 -6.121439 13.682743 0.000000 0.000000 0.000000 31.576546 7.186046 -14.559537 -11.211156 2.616893 -0.860262 34.993618 0.771372 0.976737 -3.521967 9.154817 6.304141 -90.538025 -15.393127 21.413021 -85.935204 -0.313163 18.532072 11.471472 13.481836 -8.494130 3.089181 -14.089146 8.026228 100.742172 -11.139481 2.192158 61.623772 -7.068487 69.811737 -23.280046 -25.850410 -6.774669 1.718294 14.463335 5.647606 60.465801 7.598631 -33.785381 -26.378954 -4.821404 17.004864 -55.558331 -5.485715 -15.197666 123.070694 -11.492505 7.776723 -20.114347 0.269628 -1.731527 
4.075138 43.811630 -2.580793 -30.414536 -6.379816 13.247095 0.000000 0.000000 0.000000 28.859028 7.247370 -15.546202 -13.890520 1.943350 0.176011 35.692024 1.025010 1.562774 -3.521967 9.154817 6.304141 -89.905319 -22.230545 26.134960 -97.602966 -2.655645 14.474101 8.487035 13.586947 -8.509447 3.089181 -14.089146 8.026228 95.996803 -10.818996 9.207050 81.081284 0.434515 66.613670 -19.755302 -22.995964 -7.542724 -4.179655 14.196933 5.286119 62.835369 6.874208 -34.305008 -26.715103 -4.869784 17.069492 -52.398705 -5.419133 -13.322964 124.615135 -11.326881 8.724107 -17.366570 0.116618 -1.142573 
4.036786 43.262051 -3.352707 -25.935574 -6.680416 12.300702 0.000000 0.000000 0.000000 25.560812 6.811293 -13.465287 -17.545652 2.597409 -0.791531 37.400230 0.888501 1.123215 -3.521967 9.154817 6.304141 -94.795944 -35.651779 38.529003 -105.797424 -2.930542 17.129648 7.182190 12.185027 -8.523569 3.089181 -14.089146 8.026228 93.861786 -3.162048 15.437935 91.553062 2.934710 63.073421 -16.011721 -20.123367 -8.197070 -10.623610 13.728214 5.055388 64.859673 6.036770 -34.610359 -26.733923 -4.814338 16.820494 -46.647881 -4.765133 -11.899844 125.483986 -11.278155 6.147679 -15.849322 -0.155905 0.190347 
4.096919 42.943222 -4.293197 -20.919081 -6.391169 11.606205 0.000000 0.000000 0.000000 21.208096 6.040709 -10.488281 -20.354811 3.433802 -2.660837 38.916050 0.195313 0.009799 -3.521967 9.154817 6.304141 -108.697601 -47.017059 59.313145 -108.236023 -2.276002 21.234053 6.115324 10.638667 -8.519361 3.089181 -14.089146 8.026228 94.533737 11.532470 21.256687 89.250244 2.872645 59.526501 -16.594767 -19.722633 -8.177999 -17.049101 12.469360 4.876968 65.395782 4.991026 -34.892258 -26.078411 -4.550520 16.254591 -39.438251 -5.438315 -10.284069 124.008385 -11.073116 4.080315 -11.935944 -0.312211 1.354426 
4.179460 42.971073 -5.083796 -15.935863 -5.179082 10.884088 0.000000 0.000000 0.000000 16.026136 5.056947 -7.263963 -21.152266 2.484703 -3.821538 39.282394 0.585759 -1.416041 -3.521967 9.154817 6.304141 -124.305847 -49.904034 80.705162 -108.371758 -1.164686 18.923140 5.546061 8.405665 -8.466594 3.089181 -14.089146 8.026228 99.449448 29.292933 27.711037 71.719040 3.260786 62.912888 -21.284164 -20.008749 -7.787264 -22.101969 10.776696 5.424346 64.236679 3.509124 -35.478329 -24.566402 -4.003474 15.106529 -30.249723 -7.742632 -9.690337 119.550232 -10.820307 2.247808 -9.088140 -0.318285 1.658678 
4.220971 43.321487 -5.491290 -11.658051 -3.247285 9.360435 0.000000 0.000000 0.000000 12.370070 2.079828 -0.889150 -20.595720 0.914637 -4.883436 38.494446 2.438019 -3.020245 -3.521967 9.154817 6.304141 44.816422 -132.464478 -80.893532 -107.202896 0.486613 17.758448 6.244151 9.390097 -8.481527 3.089181 -14.089146 8.026228 113.634224 47.645618 38.876312 31.802536 -4.599737 68.825188 -30.120005 -19.850088 -7.193657 -24.803949 9.364996 6.970131 61.632759 1.494458 -36.140785 -22.845474 -3.434872 13.795599 -18.875515 -10.643415 -10.954224 111.275986 -10.614988 -2.690642 -7.652439 -0.182275 0.881048 
4.231590 43.762920 -5.482656 -8.688041 -1.783207 7.073556 0.000000 0.000000 0.000000 11.326407 -1.619024 9.310342 -20.557941 1.093576 -7.696699 38.013592 2.479727 -5.268447 -3.521967 9.154817 6.304141 40.427097 -137.513824 -68.966805 -105.960480 1.912735 20.577755 6.312932 10.682851 -8.520058 3.089181 -14.089146 8.026228 120.079041 59.603176 40.969788 8.936434 -6.304296 84.386314 -30.556767 -17.464048 -7.566591 -25.535877 9.179317 8.929023 59.065708 -0.417114 -36.527321 -21.682236 -3.016340 12.737731 -5.409111 -13.448859 -14.299752 97.711311 -10.595619 -7.321394 -6.246074 -0.083786 -0.378400 
